<svg width="12" height="11" viewBox="0 0 12 11" fill="none" xmlns="http://www.w3.org/2000/svg">
<path fill-rule="evenodd" clip-rule="evenodd" d="M2.27991 0.219969C2.13773 0.0874886 1.94969 0.0153654 1.75539 0.0187936C1.56109 0.0222218 1.3757 0.100934 1.23829 0.238347C1.10087 0.37576 1.02216 0.561145 1.01873 0.755446C1.01531 0.949747 1.08743 1.13779 1.21991 1.27997L4.93991 4.99997L1.21991 8.71997C1.14622 8.78863 1.08712 8.87143 1.04613 8.96343C1.00514 9.05543 0.983095 9.15474 0.981318 9.25545C0.979541 9.35615 0.998066 9.45618 1.03579 9.54957C1.07351 9.64295 1.12965 9.72779 1.20087 9.79901C1.27209 9.87022 1.35692 9.92637 1.45031 9.96409C1.5437 10.0018 1.64373 10.0203 1.74443 10.0186C1.84513 10.0168 1.94445 9.99474 2.03645 9.95375C2.12845 9.91276 2.21125 9.85365 2.27991 9.77997L5.99991 6.05997L9.71991 9.77997C9.78857 9.85365 9.87137 9.91276 9.96337 9.95375C10.0554 9.99474 10.1547 10.0168 10.2554 10.0186C10.3561 10.0203 10.4561 10.0018 10.5495 9.96409C10.6429 9.92637 10.7277 9.87022 10.7989 9.79901C10.8702 9.72779 10.9263 9.64295 10.964 9.54957C11.0018 9.45618 11.0203 9.35615 11.0185 9.25545C11.0167 9.15474 10.9947 9.05543 10.9537 8.96343C10.9127 8.87143 10.8536 8.78863 10.7799 8.71997L7.05991 4.99997L10.7799 1.27997C10.9124 1.13779 10.9845 0.949747 10.9811 0.755446C10.9777 0.561145 10.8989 0.37576 10.7615 0.238347C10.6241 0.100934 10.4387 0.0222218 10.2444 0.0187936C10.0501 0.0153654 9.86208 0.0874886 9.71991 0.219969L5.99991 3.93997L2.27991 0.219969Z" fill="#666666"/>
</svg>
