<svg width="18" height="18" viewBox="0 0 18 18" fill="none" xmlns="http://www.w3.org/2000/svg">
<g clip-path="url(#clip0_157_7)">
<path d="M9 16.5C13.1421 16.5 16.5 13.1421 16.5 9C16.5 4.85786 13.1421 1.5 9 1.5C4.85786 1.5 1.5 4.85786 1.5 9C1.5 10.1998 1.78171 11.3337 2.28259 12.3394C2.4157 12.6066 2.46001 12.9121 2.38284 13.2004L1.93613 14.87C1.74221 15.5948 2.40526 16.2578 3.13001 16.0639L4.79954 15.6172C5.08795 15.54 5.39341 15.5843 5.66065 15.7174C6.66628 16.2183 7.80023 16.5 9 16.5Z" stroke="black" stroke-width="1.125"/>
<path d="M6 7.875H12" stroke="black" stroke-width="1.125" stroke-linecap="round"/>
<path d="M6 10.5H10.125" stroke="black" stroke-width="1.125" stroke-linecap="round"/>
</g>
<defs>
<clipPath id="clip0_157_7">
<rect width="18" height="18" fill="white"/>
</clipPath>
</defs>
</svg>
