<svg width="18" height="18" viewBox="0 0 18 18" fill="none" xmlns="http://www.w3.org/2000/svg">
<path d="M9 1.6875C10.9394 1.6875 12.7994 2.45792 14.1707 3.82928C15.5421 5.20064 16.3125 7.0606 16.3125 9C16.3125 10.9394 15.5421 12.7994 14.1707 14.1707C12.7994 15.5421 10.9394 16.3125 9 16.3125V1.6875ZM9 0C6.61305 0 4.32387 0.948212 2.63604 2.63604C0.948212 4.32387 0 6.61305 0 9C0 11.3869 0.948212 13.6761 2.63604 15.364C4.32387 17.0518 6.61305 18 9 18C11.3869 18 13.6761 17.0518 15.364 15.364C17.0518 13.6761 18 11.3869 18 9C18 6.61305 17.0518 4.32387 15.364 2.63604C13.6761 0.948212 11.3869 0 9 0Z" fill="black"/>
</svg>
