<svg width="25" height="28" viewBox="0 0 25 28" fill="none" xmlns="http://www.w3.org/2000/svg">
<path d="M11.7504 22.6264L20.9951 12.272C19.4397 11.5448 18.0271 10.4823 16.8376 9.14483C15.6427 7.81217 14.6935 6.22935 14.044 4.48647L4.79767 14.8409C4.07584 15.6494 3.71492 16.0519 3.40557 16.4981C3.03951 17.0236 2.7257 17.5922 2.46969 18.1938C2.25251 18.7031 2.09158 19.2455 1.76817 20.3288L0.0682688 26.0458C-0.00974222 26.3074 -0.0211442 26.5881 0.0353422 26.8565C0.0918285 27.1249 0.213968 27.3704 0.38806 27.5654C0.562151 27.7604 0.781308 27.8971 1.02094 27.9604C1.26058 28.0237 1.51121 28.0109 1.74473 27.9235L6.84755 26.0196C7.81624 25.6574 8.30058 25.4771 8.75524 25.2321C9.29264 24.9465 9.80035 24.5956 10.2692 24.1856C10.6676 23.8374 11.027 23.4332 11.7488 22.6264M23.5606 9.39858C24.017 8.88726 24.3791 8.28025 24.626 7.61223C24.873 6.9442 25.0001 6.22823 25 5.5052C24.9999 4.78216 24.8727 4.06622 24.6256 3.39826C24.3785 2.73029 24.0163 2.12338 23.5598 1.61218C23.1033 1.10097 22.5613 0.695487 21.9649 0.418869C21.3685 0.142251 20.7292 -8.12141e-05 20.0837 3.47655e-08C19.4382 8.12837e-05 18.7989 0.142574 18.2026 0.419342C17.6062 0.69611 17.0643 1.10173 16.6079 1.61305L15.4986 2.85552L15.547 3.01301C15.9532 4.32372 16.7204 6.04392 18.1625 7.65913C19.3655 9.01415 20.8347 10.0353 22.4529 10.641L23.5606 9.39858Z" fill="white"/>
</svg>
