<svg width="28" height="27" viewBox="0 0 28 27" fill="none" xmlns="http://www.w3.org/2000/svg">
<path d="M13.9987 0.0461426C21.732 0.0461426 28 4.98238 28 11.0732C28 17.1627 21.732 22.0989 14 22.0989C13.2301 22.0993 12.461 22.0498 11.6973 21.9507L5.82 25.8348C5.152 26.1918 4.916 26.1527 5.19067 25.2784L6.38 20.3233C2.54 18.3563 0 14.9478 0 11.0732C0 4.98373 6.26667 0.0461426 14 0.0461426M21.8773 10.9048L23.8373 8.98634C23.9504 8.86766 24.0135 8.70926 24.0133 8.54451C24.0131 8.37976 23.9497 8.22151 23.8363 8.10311C23.7229 7.98471 23.5685 7.91539 23.4055 7.90976C23.2426 7.90413 23.0838 7.96262 22.9627 8.07292L20.392 10.5868V8.50942C20.392 8.34077 20.3257 8.17903 20.2077 8.05978C20.0897 7.94053 19.9296 7.87353 19.7627 7.87353C19.5958 7.87353 19.4357 7.94053 19.3177 8.05978C19.1996 8.17903 19.1333 8.34077 19.1333 8.50942V11.9543C19.1098 12.0526 19.1098 12.1551 19.1333 12.2534V14.192C19.1333 14.3607 19.1996 14.5224 19.3177 14.6417C19.4357 14.7609 19.5958 14.8279 19.7627 14.8279C19.9296 14.8279 20.0897 14.7609 20.2077 14.6417C20.3257 14.5224 20.392 14.3607 20.392 14.192V12.3558L20.9613 11.7993L22.8653 14.5383C22.9129 14.6066 22.9733 14.6649 23.0431 14.7097C23.1129 14.7545 23.1908 14.7849 23.2722 14.7993C23.3537 14.8137 23.4372 14.8117 23.5179 14.7935C23.5986 14.7753 23.675 14.7412 23.7427 14.6932C23.8103 14.6452 23.868 14.5841 23.9123 14.5136C23.9567 14.443 23.9868 14.3644 24.001 14.282C24.0153 14.1997 24.0133 14.1154 23.9953 14.0338C23.9773 13.9523 23.9435 13.8751 23.896 13.8067L21.8773 10.9048ZM17.9333 13.4969H15.9867V8.52963C15.9792 8.36622 15.9097 8.212 15.7926 8.09902C15.6756 7.98604 15.5199 7.923 15.358 7.923C15.1961 7.923 15.0404 7.98604 14.9234 8.09902C14.8063 8.212 14.7368 8.36622 14.7293 8.52963V14.1327C14.7293 14.483 15.0093 14.7686 15.3573 14.7686H17.9333C18.1002 14.7686 18.2603 14.7016 18.3783 14.5824C18.4964 14.4631 18.5627 14.3014 18.5627 14.1327C18.5627 13.9641 18.4964 13.8024 18.3783 13.6831C18.2603 13.5638 18.1002 13.4969 17.9333 13.4969ZM10.124 12.027L11.052 9.72597L11.9027 12.0257L10.124 12.027ZM13.488 12.6831L13.4907 12.6616C13.4904 12.5014 13.4298 12.3473 13.3213 12.2305L11.9267 8.45823C11.8682 8.27846 11.7568 8.12101 11.6075 8.0069C11.4581 7.89279 11.2778 7.82746 11.0907 7.81964C10.9022 7.8188 10.7179 7.87597 10.5624 7.98355C10.4069 8.09113 10.2874 8.24401 10.22 8.42185L8.004 13.9118C7.94088 14.0679 7.94173 14.243 8.00637 14.3985C8.07101 14.554 8.19414 14.6772 8.34867 14.741C8.5032 14.8048 8.67648 14.8039 8.83038 14.7386C8.98429 14.6733 9.10621 14.5489 9.16934 14.3928L9.612 13.2975H12.372L12.7693 14.3752C12.7964 14.4558 12.8393 14.5301 12.8953 14.5936C12.9513 14.6571 13.0194 14.7086 13.0955 14.7451C13.1716 14.7816 13.2541 14.8022 13.3382 14.8059C13.4224 14.8095 13.5064 14.7961 13.5853 14.7663C13.6642 14.7366 13.7364 14.6911 13.7975 14.6326C13.8587 14.5742 13.9077 14.5039 13.9415 14.426C13.9753 14.3481 13.9933 14.2641 13.9945 14.179C13.9956 14.0939 13.9798 14.0095 13.948 13.9307L13.488 12.6831ZM9.05733 8.53636C9.05733 8.36795 8.99121 8.20641 8.87348 8.0872C8.75574 7.96798 8.59601 7.90083 8.42933 7.90047H4.10267C3.93576 7.90047 3.77568 7.96747 3.65766 8.08672C3.53964 8.20597 3.47333 8.36772 3.47333 8.53636C3.47333 8.70501 3.53964 8.86675 3.65766 8.98601C3.77568 9.10526 3.93576 9.17226 4.10267 9.17226H5.64933V14.2055C5.64933 14.3741 5.71564 14.5359 5.83366 14.6551C5.95168 14.7744 6.11176 14.8414 6.27867 14.8414C6.44558 14.8414 6.60565 14.7744 6.72367 14.6551C6.8417 14.5359 6.908 14.3741 6.908 14.2055V9.17226H8.428C8.59491 9.17226 8.75498 9.10526 8.87301 8.98601C8.99103 8.86675 9.05733 8.70501 9.05733 8.53636Z" fill="#5C553B"/>
</svg>
