<svg width="15" height="15" viewBox="0 0 15 15" fill="none" xmlns="http://www.w3.org/2000/svg">
<path d="M7.575 12.7112L7.5 12.7929L7.4175 12.7112C3.855 9.18801 1.5 6.85831 1.5 4.49591C1.5 2.86104 2.625 1.63488 4.125 1.63488C5.28 1.63488 6.405 2.45232 6.8025 3.56403H8.1975C8.595 2.45232 9.72 1.63488 10.875 1.63488C12.375 1.63488 13.5 2.86104 13.5 4.49591C13.5 6.85831 11.145 9.18801 7.575 12.7112ZM10.875 0C9.57 0 8.3175 0.662125 7.5 1.70027C6.6825 0.662125 5.43 0 4.125 0C1.815 0 0 1.97003 0 4.49591C0 7.57766 2.55 10.1035 6.4125 13.921L7.5 15L8.5875 13.921C12.45 10.1035 15 7.57766 15 4.49591C15 1.97003 13.185 0 10.875 0Z" fill="white"/>
</svg>
