<svg width="25" height="29" viewBox="0 0 25 29" fill="none" xmlns="http://www.w3.org/2000/svg">
<path d="M11.7504 22.896L20.9951 12.5415C19.4397 11.8143 18.0271 10.7518 16.8376 9.41437C15.6427 8.0817 14.6935 6.49888 14.044 4.756L4.79767 15.1104C4.07584 15.9189 3.71492 16.3214 3.40557 16.7677C3.03951 17.2931 2.7257 17.8617 2.46969 18.4634C2.25251 18.9726 2.09158 19.5151 1.76817 20.5983L0.0682688 26.3154C-0.00974222 26.5769 -0.0211442 26.8576 0.0353422 27.126C0.0918285 27.3944 0.213968 27.6399 0.38806 27.8349C0.562151 28.0299 0.781308 28.1667 1.02094 28.2299C1.26058 28.2932 1.51121 28.2804 1.74473 28.1931L6.84755 26.2891C7.81624 25.9269 8.30058 25.7466 8.75524 25.5016C9.29264 25.2161 9.80035 24.8651 10.2692 24.4552C10.6676 24.1069 11.027 23.7027 11.7488 22.896M23.5606 9.66811C24.017 9.15679 24.3791 8.54979 24.626 7.88176C24.873 7.21373 25.0001 6.49776 25 5.77473C24.9999 5.05169 24.8727 4.33576 24.6256 3.66779C24.3785 2.99983 24.0163 2.39291 23.5598 1.88171C23.1033 1.37051 22.5613 0.965018 21.9649 0.6884C21.3685 0.411782 20.7292 0.26945 20.0837 0.269531C19.4382 0.269613 18.7989 0.412105 18.2026 0.688873C17.6062 0.965642 17.0643 1.37127 16.6079 1.88258L15.4986 3.12505L15.547 3.28254C15.9532 4.59326 16.7204 6.31346 18.1625 7.92866C19.3655 9.28369 20.8347 10.3048 22.4529 10.9106L23.5606 9.66811Z" fill="black"/>
</svg>
