<svg width="16" height="13" viewBox="0 0 16 13" fill="none" xmlns="http://www.w3.org/2000/svg">
<path d="M8 0C13 0 16 6.5 16 6.5C16 6.5 13 13 8 13C3 13 0 6.5 0 6.5C0 6.5 3 0 8 0ZM8 1.18182C4.48 1.18182 1.998 5.02391 1.175 6.5C1.997 7.97491 4.479 11.8182 8 11.8182C11.52 11.8182 14.002 7.97609 14.825 6.5C14.003 5.02509 11.521 1.18182 8 1.18182ZM8 2.36364C8.92826 2.36364 9.8185 2.79943 10.4749 3.57515C11.1313 4.35087 11.5 5.40297 11.5 6.5C11.5 7.59703 11.1313 8.64913 10.4749 9.42485C9.8185 10.2006 8.92826 10.6364 8 10.6364C7.07174 10.6364 6.1815 10.2006 5.52513 9.42485C4.86875 8.64913 4.5 7.59703 4.5 6.5C4.5 5.40297 4.86875 4.35087 5.52513 3.57515C6.1815 2.79943 7.07174 2.36364 8 2.36364ZM8 3.54545C7.3372 3.54638 6.70177 3.85796 6.2331 4.41185C5.76443 4.96573 5.50079 5.71669 5.5 6.5C5.5 8.12855 6.621 9.45455 8 9.45455C9.379 9.45455 10.5 8.12855 10.5 6.5C10.5 4.87145 9.379 3.54545 8 3.54545Z" fill="white"/>
</svg>
